<?xml version="1.0" encoding="UTF-8"?>
<!-- Generator: visioncortex VTracer 0.6.12 -->
<svg version="1.1" xmlns="http://www.w3.org/2000/svg" width="578" height="316">
<path d="M0 0 C0.355 0.002 0.355 0.002 2.155 0.01 C15.402 0.1 28.069 1.449 41 4.438 C41.449 4.537 41.449 4.537 43.72 5.04 C61.36 9.074 78.134 15.83 94.95 22.395 C127.657 35.117 127.657 35.117 143.812 30.062 C159.694 25.4 175.463 24.16 192 24.438 C189.414 29.111 186.168 33.12 182.812 37.25 C182.254 37.943 181.695 38.636 181.119 39.35 C179.749 41.048 178.375 42.743 177 44.438 C178.479 47.51 180.112 49.889 182.312 52.5 C187.616 59.292 190.785 65.725 191.697 74.358 C192.456 80.919 193.604 84.888 198.804 89.221 C201.784 91.443 204.832 93.495 208 95.438 C208.445 95.714 208.445 95.714 210.699 97.113 C211.058 97.332 211.058 97.332 212.875 98.438 C213.906 99.097 214.938 99.757 216 100.438 C216 101.428 216 102.418 216 103.438 C205.16 110.664 192.542 109.724 180 109.625 C178.267 109.62 176.534 109.616 174.8 109.612 C166.467 109.579 158.147 109.446 149.82 109.102 C132.639 108.4 116.146 108.752 99.039 110.648 C78.097 112.839 57.04 112.636 36.009 112.626 C33.479 112.625 30.948 112.626 28.418 112.627 C3.853 112.632 -20.648 112.272 -45.173 110.742 C-58.509 109.931 -58.509 109.931 -63.105 111.496 C-63.779 111.717 -64.453 111.938 -65.146 112.166 C-65.82 112.4 -66.494 112.634 -67.188 112.875 C-75.019 115.505 -81.639 116.639 -89.875 116.688 C-90.748 116.708 -91.62 116.729 -92.52 116.75 C-101.071 116.801 -106.851 114.443 -113 108.438 C-114.692 104.984 -115.262 102.167 -115.301 98.34 C-115.31 97.38 -115.32 96.419 -115.33 95.43 C-115.21 74.551 -110.022 58.238 -96 42.438 C-95.483 41.779 -94.966 41.12 -94.434 40.441 C-72.739 13.419 -33.622 -0.314 0 0 Z " fill="#FAF9F6" transform="translate(239,132.5625)"/>
<path d="M0 0 C0.355 0.002 0.355 0.002 2.155 0.01 C15.402 0.1 28.069 1.449 41 4.438 C41.449 4.537 41.449 4.537 43.72 5.04 C61.36 9.074 78.134 15.83 94.95 22.395 C127.657 35.117 127.657 35.117 143.812 30.062 C159.694 25.4 175.463 24.16 192 24.438 C189.414 29.111 186.168 33.12 182.812 37.25 C182.254 37.943 181.695 38.636 181.119 39.35 C179.749 41.048 178.375 42.743 177 44.438 C178.479 47.51 180.112 49.889 182.312 52.5 C187.616 59.292 190.785 65.725 191.697 74.358 C192.456 80.919 193.604 84.888 198.804 89.221 C201.784 91.443 204.832 93.495 208 95.438 C208.445 95.714 208.445 95.714 210.699 97.113 C211.058 97.332 211.058 97.332 212.875 98.438 C213.906 99.097 214.938 99.757 216 100.438 C216 101.428 216 102.418 216 103.438 C205.16 110.664 192.542 109.724 180 109.625 C178.267 109.62 176.534 109.616 174.8 109.612 C166.467 109.579 158.147 109.446 149.82 109.102 C132.639 108.4 116.146 108.752 99.039 110.648 C78.097 112.839 57.04 112.636 36.009 112.626 C33.479 112.625 30.948 112.626 28.418 112.627 C3.853 112.632 -20.648 112.272 -45.173 110.742 C-58.509 109.931 -58.509 109.931 -63.105 111.496 C-63.779 111.717 -64.453 111.938 -65.146 112.166 C-65.82 112.4 -66.494 112.634 -67.188 112.875 C-75.019 115.505 -81.639 116.639 -89.875 116.688 C-90.748 116.708 -91.62 116.729 -92.52 116.75 C-101.071 116.801 -106.851 114.443 -113 108.438 C-114.692 104.984 -115.262 102.167 -115.301 98.34 C-115.31 97.38 -115.32 96.419 -115.33 95.43 C-115.21 74.551 -110.022 58.238 -96 42.438 C-95.483 41.779 -94.966 41.12 -94.434 40.441 C-72.739 13.419 -33.622 -0.314 0 0 Z M-58 17.438 C-58.639 17.765 -59.277 18.093 -59.935 18.43 C-68.414 22.829 -75.918 28.018 -83 34.438 C-83.487 34.875 -83.974 35.313 -84.476 35.765 C-99.471 49.415 -110.901 66.621 -112.254 87.324 C-112.455 100.811 -112.455 100.811 -110 106.438 C-104.208 112.347 -98.788 113.569 -90.688 113.75 C-81.635 113.702 -72.63 111.716 -64.23 108.316 C-59.429 107.01 -54.763 107.189 -49.812 107.25 C-49.324 107.25 -49.324 107.25 -46.85 107.252 C-42.179 107.28 -37.599 107.468 -32.951 107.938 C-27.459 108.442 -22.026 108.586 -16.513 108.583 C-16.02 108.584 -16.02 108.584 -13.526 108.593 C-10.293 108.602 -7.061 108.604 -3.828 108.605 C-1.542 108.609 0.745 108.612 3.032 108.616 C7.826 108.622 12.621 108.623 17.415 108.623 C22.269 108.623 27.123 108.63 31.978 108.643 C63.249 108.73 93.947 108.578 125 104.438 C125 81.998 125 59.558 125 36.438 C119.39 34.787 113.78 33.137 108 31.438 C104.775 30.296 101.611 29.146 98.441 27.879 C97.643 27.567 96.844 27.256 96.02 26.935 C93.532 25.963 91.047 24.982 88.562 24 C55.487 10.964 55.487 10.964 39.25 7.688 C38.758 7.586 38.758 7.586 36.27 7.073 C33.516 6.515 30.758 5.975 28 5.438 C26.815 5.189 25.631 4.94 24.41 4.684 C-3.741 -0.393 -32.763 4.22 -58 17.438 Z " fill="#FAF9F6" transform="translate(239,132.5625)"/>
<path d="M0 0 C0.355 0.002 0.355 0.002 2.155 0.01 C15.402 0.1 28.069 1.449 41 4.438 C41.449 4.537 41.449 4.537 43.72 5.04 C61.36 9.074 78.134 15.83 94.95 22.395 C127.657 35.117 127.657 35.117 143.812 30.062 C159.694 25.4 175.463 24.16 192 24.438 C189.414 29.111 186.168 33.12 182.812 37.25 C182.254 37.943 181.695 38.636 181.119 39.35 C179.749 41.048 178.375 42.743 177 44.438 C178.479 47.51 180.112 49.889 182.312 52.5 C187.616 59.292 190.785 65.725 191.697 74.358 C192.456 80.919 193.604 84.888 198.804 89.221 C201.784 91.443 204.832 93.495 208 95.438 C208.445 95.714 208.445 95.714 210.699 97.113 C211.058 97.332 211.058 97.332 212.875 98.438 C213.906 99.097 214.938 99.757 216 100.438 C216 101.428 216 102.418 216 103.438 C205.16 110.664 192.542 109.724 180 109.625 C178.267 109.62 176.534 109.616 174.8 109.612 C166.467 109.579 158.147 109.446 149.82 109.102 C132.639 108.4 116.146 108.752 99.039 110.648 C78.097 112.839 57.04 112.636 36.009 112.626 C33.479 112.625 30.948 112.626 28.418 112.627 C3.853 112.632 -20.648 112.272 -45.173 110.742 C-58.509 109.931 -58.509 109.931 -63.105 111.496 C-63.779 111.717 -64.453 111.938 -65.146 112.166 C-65.82 112.4 -66.494 112.634 -67.188 112.875 C-75.019 115.505 -81.639 116.639 -89.875 116.688 C-90.748 116.708 -91.62 116.729 -92.52 116.75 C-101.071 116.801 -106.851 114.443 -113 108.438 C-114.692 104.984 -115.262 102.167 -115.301 98.34 C-115.31 97.38 -115.32 96.419 -115.33 95.43 C-115.21 74.551 -110.022 58.238 -96 42.438 C-95.483 41.779 -94.966 41.12 -94.434 40.441 C-72.739 13.419 -33.622 -0.314 0 0 Z M-58 17.438 C-58.639 17.765 -59.277 18.093 -59.935 18.43 C-68.414 22.829 -75.918 28.018 -83 34.438 C-83.487 34.875 -83.974 35.313 -84.476 35.765 C-99.471 49.415 -110.901 66.621 -112.254 87.324 C-112.455 100.811 -112.455 100.811 -110 106.438 C-104.208 112.347 -98.788 113.569 -90.688 113.75 C-81.635 113.702 -72.63 111.716 -64.23 108.316 C-59.429 107.01 -54.763 107.189 -49.812 107.25 C-49.324 107.25 -49.324 107.25 -46.85 107.252 C-42.179 107.28 -37.599 107.468 -32.951 107.938 C-27.459 108.442 -22.026 108.586 -16.513 108.583 C-16.02 108.584 -16.02 108.584 -13.526 108.593 C-10.293 108.602 -7.061 108.604 -3.828 108.605 C-1.542 108.609 0.745 108.612 3.032 108.616 C7.826 108.622 12.621 108.623 17.415 108.623 C22.269 108.623 27.123 108.63 31.978 108.643 C92.801 108.813 92.801 108.813 113.829 105.909 C118.032 105.376 122.154 105.324 126.385 105.372 C127.181 105.376 127.977 105.381 128.797 105.386 C130.512 105.396 132.227 105.409 133.942 105.423 C136.663 105.446 139.384 105.46 142.105 105.471 C149.836 105.505 157.568 105.546 165.299 105.609 C170.042 105.647 174.784 105.67 179.527 105.683 C181.325 105.691 183.123 105.705 184.922 105.724 C202.219 105.907 202.219 105.907 210 102.438 C206.19 98.467 202.143 95.014 197.812 91.625 C197.184 91.123 196.556 90.621 195.908 90.104 C191.245 86.438 191.245 86.438 189 86.438 C189.058 85.638 189.116 84.839 189.176 84.016 C189.704 71.154 185.182 61.252 177 51.438 C175.075 49.568 173.172 48.026 171 46.438 C174.65 41.41 178.471 36.675 182.68 32.102 C184 30.438 184 30.438 184 28.438 C166.676 27.964 150.398 30.971 134 36.438 C128.154 36.74 123.313 36.042 117.719 34.402 C116.946 34.181 116.172 33.96 115.376 33.732 C106.215 31.029 97.368 27.525 88.5 24 C55.566 10.98 55.566 10.98 39.25 7.688 C38.758 7.586 38.758 7.586 36.27 7.073 C33.516 6.515 30.758 5.975 28 5.438 C26.815 5.189 25.631 4.94 24.41 4.684 C-3.741 -0.393 -32.763 4.22 -58 17.438 Z " fill="#656565" transform="translate(239,132.5625)"/>
<path d="M0 0 C1.32 0 2.64 0 4 0 C4 22.44 4 44.88 4 68 C2.68 68 1.36 68 0 68 C0 45.56 0 23.12 0 0 Z " fill="#656565" transform="translate(360,169)"/>
<path d="M0 0 C2.667 0 5.333 0 8 0 C7.67 0.99 7.34 1.98 7 3 C5.02 3.33 3.04 3.66 1 4 C0.67 2.68 0.34 1.36 0 0 Z " fill="#656565" transform="translate(411,113)"/>
<path d="M0 0 C0.495 0.33 0.495 0.33 3 2 C3.66 1.67 4.32 1.34 5 1 C4.67 2.32 4.34 3.64 4 5 C2.35 5 0.7 5 -1 5 C-0.67 3.35 -0.34 1.7 0 0 Z " fill="#656565" transform="translate(428,135)"/>
<path d="M0 0 C0 0.66 0 1.32 0 2 C0.66 2.33 1.32 2.66 2 3 C2 3.66 2 4.32 2 5 C0.35 5 -1.3 5 -3 5 C-3.33 3.68 -3.66 2.36 -4 1 C-2 0 -2 0 0 0 Z " fill="#656565" transform="translate(435,141)"/>
<path d="M0 0 C0.66 0.165 0.66 0.165 4 1 C4 1.99 4 2.98 4 4 C2.35 4 0.7 4 -1 4 C-0.67 2.68 -0.34 1.36 0 0 Z " fill="#656565" transform="translate(422,148)"/>
<path d="M0 0 C0.66 0 1.32 0 2 0 C2.33 1.98 2.66 3.96 3 6 C2.01 6 1.02 6 0 6 C-0.382 4.344 -0.714 2.675 -1 1 C-0.67 0.67 -0.34 0.34 0 0 Z " fill="#656565" transform="translate(418,116)"/>
<path d="M0 0 C0.825 0.33 0.825 0.33 5 2 C5 2.66 5 3.32 5 4 C3.35 3.67 1.7 3.34 0 3 C0 2.01 0 1.02 0 0 Z " fill="#656565" transform="translate(419,138)"/>
<path d="M0 0 C0 0.66 0 1.32 0 2 C-1.65 2.66 -3.3 3.32 -5 4 C-4.67 3.01 -4.34 2.02 -4 1 C-2 0 -2 0 0 0 Z " fill="#656565" transform="translate(414,122)"/>
<path d="M0 0 C0.99 0.33 1.98 0.66 3 1 C3.33 1.99 3.66 2.98 4 4 C3.01 4 2.02 4 1 4 C0.67 2.68 0.34 1.36 0 0 Z " fill="#656565" transform="translate(416,122)"/>
<path d="M0 0 C0.825 0.33 0.825 0.33 5 2 C3.68 2.33 2.36 2.66 1 3 C0.67 2.01 0.34 1.02 0 0 Z " fill="#656565" transform="translate(408,116)"/>
<path d="M0 0 C0 0.66 0 1.32 0 2 C-0.66 2.33 -0.66 2.33 -4 4 C-4 3.01 -4 2.02 -4 1 C-2 0 -2 0 0 0 Z " fill="#656565" transform="translate(412,120)"/>
<path d="M0 0 C1.32 0 2.64 0 4 0 C4 0.66 4 1.32 4 2 C2.68 2 1.36 2 0 2 C0 1.34 0 0.68 0 0 Z " fill="#656565" transform="translate(419,144)"/>
<path d="M0 0 C1.32 0.33 2.64 0.66 4 1 C4 1.66 4 2.32 4 3 C2.68 2.34 1.36 1.68 0 1 C0 0.67 0 0.34 0 0 Z " fill="#656565" transform="translate(422,137)"/>
<path d="M0 0 C0.99 0 1.98 0 3 0 C3 0.66 3 1.32 3 2 C2.01 2 1.02 2 0 2 C0 1.34 0 0.68 0 0 Z " fill="#656565" transform="translate(431,147)"/>
<path d="M0 0 C0.33 0.165 0.33 0.165 2 1 C2 1.66 2 2.32 2 3 C1.34 3 0.68 3 0 3 C0 2.01 0 1.02 0 0 Z " fill="#656565" transform="translate(428,149)"/>
<path d="M0 0 C0.66 0 1.32 0 2 0 C2 0.66 2 1.32 2 2 C1.34 2 0.68 2 0 2 C0 1.34 0 0.68 0 0 Z " fill="#656565" transform="translate(414,124)"/>
</svg>
