<svg xmlns="http://www.w3.org/2000/svg" viewBox="0 0 1254 1254" width="512" height="512" role="img" aria-label="ArtifactFlow logo">
  <title>ArtifactFlow</title>
  <path d="M0 0 C6.5777 4.6743 9.6244 12.6662 10.9844 20.4102 C12.641 39.4267 12.0904 58.7835 12.1094 77.8477 C12.112 79.0524 12.1146 80.2572 12.1172 81.4985 C12.1381 93.8552 12.0833 106.0966 10.9844 118.4102 C10.2005 130.0578 10.1134 138.5009 16.9844 148.4102 C18.0691 150.3143 19.1318 152.2312 20.1719 154.1602 C20.6682 155.0702 21.1645 155.9803 21.6758 156.918 C23.3013 160.0137 24.6655 163.1728 25.9844 166.4102 C26.2667 167.0134 26.549 167.6167 26.8398 168.2383 C32.362 180.0488 36.1452 192.333 39.2344 204.9727 C39.4804 205.9639 39.7265 206.9552 39.98 207.9766 C43.7939 224.1483 44.2694 239.9045 44.2114 256.4316 C44.2109 258.7098 44.2112 260.988 44.2123 263.2662 C44.2129 269.4035 44.2012 275.5408 44.1872 281.6781 C44.1746 288.1096 44.1735 294.541 44.1711 300.9725 C44.1656 311.7521 44.1532 322.5315 44.1353 333.311 C44.1168 344.4058 44.1027 355.5005 44.0942 366.5952 C44.094 366.9381 44.094 366.9381 44.0926 368.6734 C44.09 372.1144 44.0875 375.5554 44.085 378.9963 C44.0643 407.4676 44.029 435.9389 43.9844 464.4102 C41.9844 463.4102 41.9844 463.4102 41.0117 460.5938 C40.6521 459.3575 40.2924 458.1213 39.9219 456.8477 C36.0532 444.4552 29.407 433.2623 20.9844 423.4102 C20.2148 422.4421 19.4452 421.474 18.6523 420.4766 C6.6731 406.1392 -12.8751 397.7704 -31.0156 395.4102 C-56.8709 394.0153 -77.126 400.5907 -99.9487 412.146 C-107.1174 415.7216 -114.2906 418.2965 -122.0156 420.4102 C-122.6849 420.6075 -123.3542 420.8048 -124.0437 421.0081 C-126.5778 421.5248 -128.9726 421.54 -131.5586 421.543 C-132.633 421.5443 -133.7075 421.5455 -134.8145 421.5469 C-135.9327 421.543 -137.051 421.5391 -138.2031 421.5352 C-139.3021 421.539 -140.401 421.5429 -141.5332 421.5469 C-160.145 421.5247 -174.8072 416.1193 -191.0156 407.4102 C-192.0739 406.8507 -193.1323 406.2912 -194.2227 405.7148 C-202.1946 401.3308 -209.7371 396.3535 -217.3281 391.3477 C-242.7677 374.578 -268.8931 359.2557 -297.0156 347.4102 C-297.8832 347.0376 -298.7507 346.6651 -299.6445 346.2812 C-303.6921 344.5989 -307.7943 343.1275 -311.957 341.7578 C-312.8576 341.4543 -313.7582 341.1508 -314.686 340.8381 C-316.5033 340.2287 -318.3245 339.6311 -320.1499 339.0466 C-320.9912 338.7644 -321.8325 338.4822 -322.6992 338.1914 C-323.4578 337.9446 -324.2163 337.6977 -324.9978 337.4434 C-328.0882 335.8609 -329.5148 333.6862 -330.7676 330.4941 C-330.8549 330.1658 -330.8549 330.1658 -331.2969 328.5039 C-331.4976 327.7661 -331.6983 327.0283 -331.905 326.2681 C-332.1065 325.49 -332.308 324.7118 -332.5156 323.9102 C-332.7307 323.105 -332.9457 322.2998 -333.1672 321.4702 C-333.792 319.119 -334.4044 316.7649 -335.0156 314.4102 C-335.1671 313.8443 -335.1671 313.8443 -335.9336 310.9805 C-342.1476 287.1968 -343.5973 261.4348 -338.0156 237.4102 C-337.9434 237.0781 -337.9434 237.0781 -337.5776 235.3979 C-335.7379 226.9573 -333.3387 218.9447 -329.946 210.988 C-326.6276 202.8549 -327.7724 196.9636 -330.9531 189.2227 C-338.9843 168.4708 -345.0405 147.2956 -349.0156 125.4102 C-349.1381 124.7927 -349.1381 124.7927 -349.7578 121.668 C-350.9083 115.3484 -351.2071 109.1314 -351.2656 102.7227 C-351.2751 101.9307 -351.2845 101.1387 -351.2942 100.3228 C-351.2614 94.6559 -351.2614 94.6559 -349.0156 92.4102 C-340.7869 91.5873 -333.8112 93.9665 -326.0156 96.4102 C-324.7184 96.7795 -323.4202 97.1454 -322.1211 97.5078 C-312.8698 100.1463 -304.5501 103.7955 -296.0718 108.3188 C-293.9657 109.4367 -291.8463 110.5253 -289.7227 111.6094 C-280.4532 116.3767 -271.7096 121.6715 -263.0156 127.4102 C-254.2879 133.1655 -254.2879 133.1655 -249.7656 134.0352 C-245.4786 133.0608 -242.3108 131.1175 -239.6406 127.5977 C-238.6986 124.3004 -238.603 121.8289 -239.0156 118.4102 C-242.2747 113.8966 -245.8274 110.7929 -250.5156 107.7852 C-251.1558 107.3677 -251.796 106.9502 -252.4556 106.52 C-266.1142 97.7443 -280.2778 89.8446 -295.1191 83.2598 C-296.8929 82.4651 -298.6504 81.6342 -300.4062 80.8008 C-316.1992 73.5405 -340.872 64.3271 -358.3047 69.0273 C-364.2434 71.6184 -369.1925 76.3797 -371.8672 82.2927 C-374.1724 88.4115 -374.4811 94.1073 -374.3906 100.5977 C-374.387 101.1152 -374.387 101.1152 -374.3687 103.7341 C-374.141 116.7671 -372.7754 129.9009 -369.0156 142.4102 C-368.6344 143.9265 -368.2614 145.4449 -367.8945 146.9648 C-364.5228 160.683 -360.2849 173.9895 -355.6233 187.314 C-355.3854 188.0047 -355.1475 188.6955 -354.9023 189.4072 C-354.2518 191.2954 -353.5913 193.1802 -352.9302 195.0647 C-351.4852 200.3504 -351.6811 204.2664 -353.7656 209.2852 C-357.7116 219.5838 -360.0834 230.3321 -361.5234 241.25 C-362.0156 244.4102 -362.0156 244.4102 -363.0547 248.2617 C-364.5019 254.6404 -364.314 261.1348 -364.2764 267.6389 C-364.2657 269.8396 -364.2763 272.0395 -364.2891 274.2402 C-364.2968 281.8573 -363.8147 288.9825 -362.0156 296.4102 C-361.7542 297.8441 -361.5051 299.2803 -361.2695 300.7188 C-360.0488 308.0111 -358.7355 315.1251 -356.5664 322.2109 C-356.0156 324.4102 -356.0156 324.4102 -356.0156 328.4102 C-360.8549 327.8323 -365.6775 327.1778 -370.5 326.4727 C-371.0917 326.3863 -371.0917 326.3863 -374.0859 325.9492 C-376.5238 325.5921 -378.9613 325.2327 -381.3984 324.8711 C-394.9943 322.8951 -408.2998 322.2025 -422.0156 322.2227 C-422.4265 322.2231 -422.4265 322.2231 -424.506 322.2255 C-436.7667 322.2558 -448.8912 322.4019 -461.0156 324.4102 C-461.8977 324.5555 -462.7797 324.7008 -463.6885 324.8506 C-502.9058 331.6187 -539.433 346.6286 -571.1406 370.7227 C-571.6976 371.1434 -572.2545 371.5641 -572.8284 371.9976 C-575.4298 374.008 -577.1713 375.6437 -579.0156 378.4102 C-579.443 383.7099 -579.5391 387.1576 -576.0156 391.4102 C-573.7434 393.4151 -572.1188 394.3538 -569.0627 394.51 C-562.4172 394.0313 -558.6869 391.573 -553.5781 387.4727 C-544.828 380.8188 -535.7963 375.4031 -526.0156 370.4102 C-525.2949 370.0402 -524.5741 369.6702 -523.8315 369.2891 C-514.473 364.5412 -505.1118 360.8498 -495.0205 357.9912 C-493.0041 357.4068 -491.0066 356.7784 -489.0078 356.1367 C-471.8343 350.7054 -453.7059 347.232 -435.6602 347.2773 C-434.7961 347.2764 -433.932 347.2754 -433.0417 347.2744 C-431.224 347.2738 -429.4063 347.2756 -427.5886 347.2798 C-424.8526 347.2851 -422.1168 347.2798 -419.3809 347.2734 C-403.9267 347.2645 -388.9837 348.2927 -373.7656 351.0352 C-373.0265 351.1678 -372.2874 351.3004 -371.5259 351.437 C-320.6002 360.6575 -275.8474 382.4294 -232.9198 410.7434 C-197.415 434.152 -161.5821 452.774 -117.7891 444.5 C-105.3485 441.84 -94.0871 436.5623 -82.8281 430.7852 C-64.6565 421.5548 -45.0503 415.881 -24.6211 421.7617 C-7.667 427.5062 4.1495 438.5104 12.4062 454.1914 C12.927 455.2536 13.4478 456.3158 13.9844 457.4102 C14.402 458.2455 14.8197 459.0808 15.25 459.9414 C28.6783 488.4014 24.596 523.1628 14.6719 552.0352 C7.7029 571.1314 -2.5195 589.1775 -16.0156 604.4102 C-16.4613 604.9214 -16.907 605.4327 -17.3662 605.9595 C-28.761 618.9849 -41.3957 629.2027 -56.0156 638.4102 C-56.9889 639.0366 -57.9621 639.6631 -58.9648 640.3086 C-85.4063 656.6086 -115.9974 663.5708 -146.7266 663.5506 C-148.3119 663.5532 -149.8971 663.5562 -151.4824 663.5596 C-155.8185 663.5676 -160.1547 663.5695 -164.4908 663.5702 C-169.1754 663.5721 -173.8599 663.5796 -178.5445 663.5863 C-188.7781 663.5999 -199.0117 663.6059 -209.2454 663.6103 C-215.6407 663.6131 -222.0361 663.6174 -228.4315 663.6218 C-246.1547 663.634 -263.878 663.6443 -281.6012 663.6477 C-282.7344 663.6479 -283.8676 663.6482 -285.035 663.6484 C-286.1708 663.6486 -287.3066 663.6488 -288.4768 663.6491 C-290.7782 663.6495 -293.0795 663.6499 -295.3809 663.6504 C-296.5224 663.6506 -297.6639 663.6508 -298.8401 663.6511 C-317.3326 663.655 -335.8251 663.6725 -354.3176 663.6958 C-373.3248 663.7195 -392.332 663.7319 -411.3392 663.7331 C-422.0026 663.734 -432.6658 663.7397 -443.3292 663.7579 C-452.4095 663.7734 -461.4898 663.7784 -470.5701 663.7702 C-475.1979 663.7663 -479.8256 663.7671 -484.4534 663.7812 C-488.7 663.7941 -492.9464 663.7927 -497.193 663.7806 C-498.7192 663.7787 -500.2455 663.7817 -501.7717 663.7905 C-543.3901 664.0147 -582.2335 644.5323 -612.0156 616.4102 C-612.802 615.6883 -613.5883 614.9664 -614.3984 614.2227 C-643.5727 586.4555 -661.4174 545.8969 -662.5409 505.77 C-662.711 497.6161 -662.6883 489.4608 -662.6546 481.3057 C-662.641 476.6649 -662.6567 472.0242 -662.6684 467.3835 C-662.6866 458.331 -662.6784 449.2788 -662.6603 440.2264 C-662.6462 432.8631 -662.6424 425.4998 -662.6458 418.1364 C-662.6462 417.0827 -662.6467 416.0291 -662.6472 414.9435 C-662.6482 412.8021 -662.6493 410.6607 -662.6504 408.5194 C-662.6589 389.6502 -662.6424 370.7812 -662.6125 351.9121 C-662.5837 333.65 -662.5766 315.3881 -662.592 297.126 C-662.6088 277.1753 -662.6128 257.2248 -662.5953 237.2741 C-662.5935 235.1431 -662.5917 233.012 -662.5898 230.881 C-662.5889 229.8328 -662.588 228.7847 -662.5871 227.7047 C-662.5815 220.3565 -662.5847 213.0083 -662.5914 205.6601 C-662.5991 196.6966 -662.5922 187.7333 -662.5672 178.7698 C-662.5548 174.2062 -662.5485 169.6428 -662.5597 165.0791 C-662.6379 130.0382 -662.6379 130.0382 -658.0156 113.4102 C-657.7352 112.3677 -657.4547 111.3253 -657.1657 110.2513 C-656.5164 107.9478 -655.7759 105.7193 -654.9531 103.4727 C-654.6635 102.6675 -654.3739 101.8623 -654.0754 101.0327 C-648.282 85.5945 -640.0961 71.4145 -630.0156 58.4102 C-629.3853 57.5581 -628.7549 56.706 -628.1055 55.8281 C-607.1403 28.2751 -575.8062 8.7898 -542.3281 0.6602 C-541.461 0.4492 -540.5939 0.2381 -539.7004 0.0208 C-538.8518 -0.1756 -538.0032 -0.3719 -537.1289 -0.5742 C-536.3842 -0.7466 -535.6396 -0.919 -534.8723 -1.0967 C-525.863 -2.652 -516.8873 -2.7344 -507.7651 -2.7236 C-506.3385 -2.7254 -504.912 -2.7277 -503.4854 -2.7304 C-499.5882 -2.7365 -495.6909 -2.7364 -491.7937 -2.7352 C-487.5815 -2.735 -483.3694 -2.7405 -479.1573 -2.7453 C-470.9139 -2.7536 -462.6706 -2.7563 -454.4272 -2.7569 C-447.7241 -2.7574 -441.0211 -2.7594 -434.3181 -2.7626 C-415.2962 -2.7714 -396.2744 -2.776 -377.2525 -2.7753 C-376.7403 -2.7752 -376.7403 -2.7752 -374.1482 -2.7751 C-373.6353 -2.7751 -373.6353 -2.7751 -371.04 -2.775 C-354.4176 -2.7746 -337.7951 -2.7842 -321.1726 -2.7983 C-304.0875 -2.8127 -287.0025 -2.8196 -269.9175 -2.8187 C-260.3324 -2.8184 -250.7473 -2.8211 -241.1623 -2.8319 C-233.0019 -2.841 -224.8416 -2.8431 -216.6813 -2.8364 C-212.5217 -2.8331 -208.3622 -2.833 -204.2026 -2.8417 C-200.3873 -2.8496 -196.5722 -2.8481 -192.7569 -2.8394 C-190.7389 -2.8372 -188.7209 -2.8447 -186.703 -2.8527 C-156.3294 -2.7386 -121.0337 8.0945 -97.832 28.4414 C-95.2345 29.8267 -93.8216 29.1629 -91.0156 28.4102 C-88.7334 27.2937 -88.7334 27.2937 -86.375 25.8906 C-85.9286 25.6297 -85.9286 25.6297 -83.6694 24.3091 C-83.1903 24.0267 -83.1903 24.0267 -80.7656 22.5977 C-20.5428 -12.0504 -20.5428 -12.0504 0 0 Z " fill="#45494F" transform="translate(933.015625,209.58984375)"/>
  <path d="M0 0 C0.66 0 1.32 0 2 0 C2.1173 9.6077 2.2054 19.2151 2.2591 28.8234 C2.2848 33.2879 2.3196 37.7519 2.3772 42.2161 C2.6926 67.3727 2.4679 91.6196 -7.8125 115.125 C-8.247 116.1594 -8.6815 117.1938 -9.1292 118.2595 C-16.8974 136.4548 -26.7468 153.0317 -40.4922 167.3516 C-42.2835 169.2434 -43.9464 171.1145 -45.5898 173.125 C-48.7367 176.8788 -52.2495 179.8702 -56 183 C-56.3416 183.2971 -56.3416 183.2971 -58.0703 184.8008 C-78.0878 201.6447 -102.158 213.8814 -127.6837 219.479 C-129.4217 219.8699 -131.1522 220.2946 -132.8782 220.7358 C-142.4017 223.0316 -151.4576 223.4296 -161.2011 223.3944 C-162.8997 223.3993 -164.5982 223.4055 -166.2967 223.4129 C-170.9276 223.4292 -175.5584 223.427 -180.1894 223.4215 C-185.1985 223.4188 -190.2076 223.4334 -195.2167 223.4456 C-205.018 223.4666 -214.8193 223.4712 -224.6206 223.4694 C-232.5954 223.4681 -240.5702 223.4719 -248.5449 223.4793 C-250.8472 223.4814 -253.1495 223.4835 -255.4518 223.4856 C-256.5979 223.4867 -257.7441 223.4877 -258.925 223.4888 C-280.58 223.5077 -302.2351 223.5066 -323.8902 223.4998 C-343.6574 223.4942 -363.4246 223.515 -383.1919 223.5482 C-403.5281 223.582 -423.8643 223.5971 -444.2007 223.5925 C-455.602 223.5902 -467.0032 223.5953 -478.4045 223.6203 C-488.1155 223.6415 -497.8263 223.6448 -507.5373 223.626 C-512.4821 223.617 -517.4266 223.6155 -522.3714 223.6364 C-549.8346 223.7445 -574.3676 221.804 -600 211 C-600.7274 210.6955 -601.4549 210.3911 -602.2043 210.0774 C-619.8623 202.4763 -635.3734 191.6126 -649.3203 178.4883 C-651.3942 176.5625 -653.4805 174.7646 -655.6875 173 C-660.4636 168.9525 -664.1666 163.9158 -668 159 C-668.7567 158.0474 -669.5134 157.0948 -670.293 156.1133 C-694.056 125.479 -704.0241 89.9024 -703.3125 51.5625 C-703.2873 49.1621 -703.2645 46.7617 -703.2441 44.3613 C-703.1899 38.5736 -703.107 32.7869 -703 27 C-702.34 27 -701.68 27 -701 27 C-700.6889 27.6234 -700.3777 28.2468 -700.0571 28.8892 C-693.838 41.275 -687.5844 53.0951 -679 64 C-678.2743 64.9462 -677.5485 65.8923 -676.8008 66.8672 C-667.3078 78.8996 -656.359 88.9891 -644 98 C-643.4244 98.4199 -642.8489 98.8398 -642.2559 99.2725 C-602.7493 127.672 -559.2177 133.4999 -511.8695 133.3922 C-507.3698 133.3853 -502.8701 133.3959 -498.3704 133.4041 C-489.5938 133.4173 -480.8172 133.4146 -472.0405 133.4059 C-464.8994 133.3991 -457.7582 133.3982 -450.6171 133.4014 C-449.5948 133.4019 -448.5725 133.4024 -447.5193 133.4028 C-445.4416 133.4038 -443.3639 133.4048 -441.2863 133.4058 C-421.8768 133.4143 -402.4675 133.4045 -383.0581 133.3884 C-366.4528 133.375 -349.8477 133.3773 -333.2424 133.3911 C-313.8906 133.4072 -294.5387 133.4135 -275.1869 133.4043 C-273.1184 133.4033 -271.0499 133.4024 -268.9815 133.4014 C-267.9641 133.401 -266.9468 133.4005 -265.8986 133.4 C-258.7757 133.3975 -251.6529 133.4018 -244.53 133.4089 C-235.836 133.4174 -227.142 133.4149 -218.448 133.399 C-214.0238 133.3912 -209.5997 133.3879 -205.1755 133.398 C-181.2659 133.4477 -158.1389 132.6658 -135 126 C-133.9559 125.7151 -132.9117 125.4302 -131.8359 125.1367 C-102.5568 116.7236 -76.7726 102.0436 -54 82 C-53.2291 81.3516 -52.4583 80.7032 -51.6641 80.0352 C-46.9495 76.0522 -42.9584 71.7256 -39 67 C-38.2614 66.1608 -37.5227 65.3216 -36.7617 64.457 C-20.4642 45.6122 -7.9159 23.6142 0 0 Z " fill="#CBC9C6" transform="translate(974,767)"/>
  <path d="M0 0 C0.66 0 1.32 0 2 0 C2.5337 1.0648 3.0673 2.1295 3.6172 3.2266 C25.7895 46.7144 64.122 80.0514 110.3438 95.875 C128.1351 101.3493 145.8127 103.31 164.3436 103.254 C166.0331 103.2563 167.7225 103.2595 169.412 103.2634 C174.0082 103.2717 178.6044 103.2677 183.2006 103.2614 C188.1754 103.2569 193.1503 103.2639 198.1251 103.2694 C207.8526 103.2783 217.5801 103.2764 227.3076 103.2706 C235.2176 103.2661 243.1275 103.2655 251.0375 103.2676 C251.6016 103.2678 251.6016 103.2678 254.4567 103.2686 C256.7493 103.2692 259.0419 103.2698 261.3345 103.2705 C282.8024 103.2762 304.2703 103.2697 325.7382 103.2589 C344.1349 103.25 362.5315 103.2515 380.9282 103.2607 C402.3224 103.2715 423.7166 103.2757 445.1108 103.2695 C447.3947 103.2689 449.6786 103.2683 451.9625 103.2676 C452.5243 103.2675 452.5243 103.2675 455.3672 103.2667 C463.2622 103.265 471.1572 103.2679 479.0522 103.2726 C488.6814 103.2782 498.3105 103.2766 507.9396 103.266 C512.8469 103.2608 517.7542 103.2587 522.6615 103.2653 C527.1632 103.2713 531.6648 103.2679 536.1665 103.2574 C537.7854 103.2552 539.4043 103.2562 541.0232 103.2611 C566.103 103.3311 590.3561 99.1166 613 88 C614.294 87.3835 615.5883 86.7677 616.8828 86.1523 C635.3226 77.2844 651.8786 65.8794 666 51 C666.8095 50.1918 667.6191 49.3835 668.4531 48.5508 C682.6702 34.3119 694.1069 18.0696 703 0 C703.66 0 704.32 0 705 0 C705.0769 6.5612 705.129 13.1223 705.1648 19.6838 C705.1798 21.9095 705.2001 24.1351 705.2263 26.3606 C705.3711 38.9916 705.1996 50.7352 702 63 C701.6649 64.5251 701.3334 66.051 701.0078 67.5781 C699.0997 75.5145 696.7062 82.7053 693 90 C692.3809 91.2803 691.7638 92.5616 691.1484 93.8438 C672.4097 132.5701 641.2992 160.1493 601 175 C599.7767 175.4615 598.5534 175.923 597.293 176.3984 C572.6627 184.9094 546.9744 184.5887 521.2747 184.5082 C516.2536 184.497 511.2325 184.5091 506.2114 184.5181 C496.413 184.5319 486.6148 184.5245 476.8164 184.5094 C465.3798 184.4924 453.9432 184.4958 442.5066 184.4995 C422.0901 184.5054 401.6738 184.4913 381.2573 184.4666 C361.4917 184.4426 341.7261 184.4356 321.9604 184.446 C300.3749 184.4575 278.7895 184.4594 257.204 184.4449 C254.8988 184.4434 252.5937 184.4419 250.2885 184.4404 C249.1546 184.4396 248.0208 184.4389 246.8526 184.4381 C238.8987 184.4334 230.9449 184.4352 222.991 184.4395 C213.2901 184.4444 203.5893 184.4383 193.8884 184.4186 C188.9481 184.4087 184.0079 184.4035 179.0676 184.4114 C140.3336 184.467 140.3336 184.467 125 181 C124.1804 180.8162 123.3608 180.6325 122.5164 180.4432 C92.8742 173.6756 66.7459 159.2281 45 138 C44.2369 137.2987 43.4737 136.5975 42.6875 135.875 C22.803 117.1268 9.0776 90.4173 3 64 C2.7312 62.9766 2.4625 61.9533 2.1855 60.8989 C-0.7622 48.5444 -0.333 36.1947 -0.1875 23.5625 C-0.1724 21.2702 -0.1587 18.9779 -0.1465 16.6855 C-0.1138 11.1235 -0.0638 5.5618 0 0 Z " fill="#CDCBC8" transform="translate(271,908)"/>
  <path d="M0 0 C3.185 1.7602 3.833 2.4989 5 6 C5.0924 7.6539 5.1279 9.3113 5.1294 10.9678 C5.1325 11.9802 5.1357 12.9927 5.1389 14.0358 C5.1369 15.1326 5.1349 16.2294 5.1328 17.3594 C5.1338 18.4959 5.1347 19.6325 5.1357 20.8035 C5.1364 23.2178 5.1345 25.6321 5.1304 28.0464 C5.1251 31.6937 5.1303 35.3409 5.1367 38.9883 C5.1397 50.6967 5.0764 62.3341 4 74 C-2.3596 75.383 -2.3596 75.383 -5.1807 73.6958 C-5.7862 73.0356 -6.3917 72.3755 -7.0156 71.6953 C-7.7037 70.9709 -8.3917 70.2466 -9.1006 69.5002 C-9.8099 68.7164 -10.5192 67.9326 -11.25 67.125 C-12.7568 65.5395 -14.2672 63.9574 -15.7812 62.3789 C-16.507 61.6159 -17.2327 60.853 -17.9805 60.0669 C-21.9939 55.9594 -26.4391 52.4822 -31 49 C-32.0698 48.1638 -33.1388 47.3265 -34.207 46.4883 C-40.0564 41.9244 -45.9508 37.5758 -52.2695 33.668 C-54 32 -54 32 -54.4922 29.4922 C-54 27 -54 27 -52.5508 25.4023 C-40.1897 17.3126 -27.2291 10.0625 -14.125 3.25 C-13.8136 3.0825 -13.8136 3.0825 -12.2378 2.2346 C-8.0136 0.0984 -4.7017 -0.4186 0 0 Z " fill="#F8B952" transform="translate(910,243)"/>
  <path d="M0 0 C2.5 1.5625 2.5 1.5625 4 4 C5.4771 11.0899 1.7342 17.1412 -2 23 C-5.3361 27.3167 -9.1305 31.1649 -13 35 C-13.562 35.5955 -14.1241 36.1911 -14.7031 36.8047 C-25.9669 47.7721 -44.3135 53.0416 -59.625 53.4375 C-77.621 52.8656 -77.621 52.8656 -83.8281 47.6016 C-86.6201 44.2572 -87.1526 42.3483 -87 38 C-85 34.5625 -85 34.5625 -82 32 C-78.1277 31.4263 -75.5377 31.8289 -71.8203 33.0117 C-67.5073 34.1275 -63.6794 34.3455 -59.25 34.3125 C-58.8533 34.3097 -58.8533 34.3097 -56.8455 34.2954 C-43.9415 34.0298 -32.6381 29.7098 -23.1875 20.75 C-18.9558 16.2685 -15.9419 11.3846 -13 6 C-9.659 0.0642 -6.8591 -0.9489 0 0 Z " fill="#F8B952" transform="translate(891,481)"/>
</svg>
